<svg viewBox="0 0 600 300" xmlns="http://www.w3.org/2000/svg">
  <path display="inline" fill="#777777" d="M285.333,133.333l-8,1.333L270,131.333l-17.667-8.667l-24-5.667c0,0-4.333,2.667-8.333,5
    s-13.333,9.333-15,12.667c-1.667,3.333-2.333,11.333-2.333,13c0,1.667,1.167,8.333,1.167,8.333s-12-2-16.167-2.833
    c-4.167-0.833-7.667-2.167-12.833-3.333c-5.167-1.167-10.167-1.167-10.167-1.167L181.333,128l61.292-27.25l32.125,25.875
    L285.333,133.333z"/>
  <path display="inline" fill="#FFFFFF" stroke="#333333" stroke-width="2" stroke-linecap="round" stroke-miterlimit="10" d="
    M270,131.333c-1.5-2.333-7.167-5.833-14-10.667c-4.463-3.157-15.667-8.667-23-7.333c-4.057,0.738-8.667,2.833-12,8.5"/>
  <path display="inline" fill="#888888" stroke="#333333" stroke-width="2" stroke-miterlimit="10" d="M299,137l-0.667,51.667
    c0,0-23.333-0.333-33.333-3C255,183,209.965,162.33,207,160c-4.667-3.667-4-11.667-4-15.667s1.509-11.1,8.667-16.667
    c6-4.667,12-7.333,19.667-6.667c7.667,0.667,42.667,10.667,47.333,14.333c0,0-1.333-1.333,3.333-1.667
    c4.667-0.333,4.667-0.333,4.667-0.333l3.333,1L299,137z"/>
</svg>
