<svg viewBox="0 0 600 300" xmlns="http://www.w3.org/2000/svg">
  <polyline fill="none" points="299.5,113 281.5,114.5 211.5,117.5 184,138.75 165.75,149.25 196.5,155.75 219.5,160.5
    247.375,165.625 	"/>
  <path fill="#777777" stroke="#333333" stroke-width="2" stroke-miterlimit="10" d="M343,50.5l3-2.75c0,0,4.75-5.5,6-7.5
    s3-5.75,3-5.75l0.5-1c0,0,18-1,19.5,0s3.5,15,3.5,15"/>
  <path fill="#777777" stroke="#333333" stroke-width="2" stroke-miterlimit="10" d="M156.5,152c1.5-4,17-22.5,27.5-33
    s49.75-43.75,61.25-51.25L263,68.5l18.75-1.75c0,0,28-2.25,32.5-3.5s7.75-2,12-4s12.5-6,12.5-6L342,51c0,0,0,0,10.5-1
    s49.5-0.5,53,1.5s11,4,11.5,9.5s-8,19.5-10.5,23.5S392,101,388,102.5"/>
  <path fill="none" stroke="#333333" stroke-width="2" stroke-linecap="round" stroke-miterlimit="10" d="M204.333,157.333
    c0,0-5.833-1.333-14.833-2.833s-19.5-6-27.5-4.5s-8.5,4-12,8s-7,12.5-6,17s4,10.5,6,12.5s14,7.5,18.5,8s21.5,6,28.5,9s17,6,22,7.5
    s35.5,11.5,41,11.5s20,4,24,3.5s12-4,14.5-6.5"/>
  <path fill="none" stroke="#333333" stroke-width="2" stroke-linecap="round" stroke-miterlimit="10" d="M144.5,179
    c-5.5,4-9,11-9,14s-0.5,9,2.5,13.5s18.5,19,25.5,23s13,11,22,14s18.5,10,24.5,12.5s22,6,29.5,3s14.5-8.5,17-13.5s14.5-18,14.5-20.5
    "/>
  <path fill="none" stroke="#333333" stroke-width="2" stroke-linecap="round" stroke-miterlimit="10" d="M217.5,258.5
    c-4.5,3.5-7,4-11,4S191,256,180,253s-33-10.5-41-16.5s-18.5,0.5-29.5-17s-16.5-28-17-37.5"/>
  <path fill="none" stroke="#333333" stroke-width="2" stroke-linecap="round" stroke-miterlimit="10" d="M113.5,226.5
    c-9.5,2.5-12.5-1.5-22-2s-47,5-59.5,5s-93.5,4-106,3"/>
  <path fill="none" stroke="#333333" stroke-width="2" stroke-linecap="round" stroke-miterlimit="10" d="M168.667,135.667
    C151.667,151.667,139,154,129,154s-23-10-23-10"/>
  <path fill="none" stroke="#333333" stroke-width="2" stroke-linecap="round" stroke-miterlimit="10" d="M406,94.5
    c0,0,29,9.5,36.5,11.5s35,15,39,17.5s18,11,17.5,20.5s-5,17-10.5,20.5S477,168,471,166s-32.5-12.5-44.5-16.5
    s-30-11.167-32.5-10.167"/>
  <path fill="#777777" stroke="#333333" stroke-width="2" stroke-miterlimit="10" d="M389,149.667c0,0,5.5-1.667,5.5-7.167
    c0.5-33,14-45.5,12-58c0,0-9.167,12.167-17.5,17.5C389,111.333,389,149.667,389,149.667z"/>
  <path fill="#777777" stroke="#333333" stroke-width="2" stroke-miterlimit="10" d="M302,68.333c-2,14-3.641,99.957-3.333,119.333
    c0.667,42,0.496,84.606,6,91.333c12,4,24,2.667,40.667,1.333c16.667-1.333,25.333-2.667,32-8.667C384,261,389,197.667,389,167
    s0.517-76.157-3.333-106"/>
  <path fill="#777777" stroke="#333333" stroke-width="2" stroke-linecap="round" stroke-miterlimit="10" d="M250,99
    c11.333,13.333,28,35.333,48.667,37.333l1-22"/>
  <path fill="#777777" stroke="#333333" stroke-width="2" stroke-miterlimit="10" d="M272.667,68.333c9.333,2,53.32-1.132,72-3
    C368,63,407.333,58.333,405.5,51.5"/>
  <path fill="none" stroke="#333333" stroke-width="2" stroke-linecap="round" stroke-miterlimit="10" d="M208.5,73c4,1,18-6,22.5-6
    s28.5,1,32,1.5s41-4,45-4s11.5-1,27.5-9.5S354,37,356,31s0-11.5-6.5-14s-34.5,2-38,1.5s-13-2.5-16-2.5s-21-6.5-29.5-8
    s-31-2-39.5-2.5S192.333,0,176.333,3.667C169.237,5.293,152,22,150.5,25.5s-47.301,48.376-54,54c-9.196,7.72-18.617,6.672-33,7
    c-15.071,0.344-140.5,1-157.5,1"/>
</svg>
