<svg viewBox="0 0 600 300" xmlns="http://www.w3.org/2000/svg">
  <path fill="#777777" d="M169.333,150L198,123.333l58.333-9l18.5,12.667c0,0,7.5,5.333,11.833,7C291,135.667,298,137,298,137
    l0.333,5.5c0,0-0.833,2.667-2.833,3.167S275,145.5,275,145.5l-18.167,4.333L247.167,166c0,0-15.167-3.167-25-5
    c-9.833-1.833-35.833-6.833-37.333-7.333S169.333,150,169.333,150"/>
  <path fill="none" stroke="#333333" stroke-width="2" stroke-linecap="round" stroke-miterlimit="10" d="M298.5,220.5
    c-2.5,2.5-10.5,6-14.5,6.5s-18.5-3.5-24-3.5s-36-10-41-11.5s-15-4.5-22-7.5s-24-8.5-28.5-9s-16.5-6-18.5-8s-5-8-6-12.5s2.5-13,6-17
    s4-6.5,12-8s18.505,2.973,27.5,4.5c9.321,1.582,25.754,5.193,34.5,7c9.507,1.965,17.5,3.5,22.5,4"/>
  <path fill="#FFFFFF" stroke="#333333" stroke-width="2" stroke-miterlimit="10" d="M277.833,137.5c-3.422-2.28-15-12-21.833-16.833
    c-4.463-3.157-15.667-8.667-23-7.333c-4.057,0.738-8,2-11.333,7.667c-3.333,5.667-3.667,16.333-1.667,22.333"/>
  <path fill="#FFFFFF" stroke="#333333" stroke-width="2" stroke-miterlimit="10" d="M289.667,146.667
    c-3.333-3.667-9.667-8-13.667-10.333C272,134,264.667,130,260.333,128c-4.333-2-14.333-8-21-8c-3.35,0-10,0.333-14,4.667
    c-4,4.333-5.333,7.667-5.667,12.333c-0.333,4.667,0.667,10.667,6,15c5.333,4.333,17.333,11.333,21.667,12.333L253,158.5
    c0,0,4-2.167,6.833-3.667c2.833-1.5,12.5-4,12.5-4L289.667,146.667z"/>
  <path fill="none" stroke="#333333" stroke-width="2" stroke-linecap="round" stroke-miterlimit="10" d="M299,143
    c-5.31,4.13-10.5,4.5-18,6s-25,5.25-30.5,12.25c-4.156,5.289-7.5,11.75-8,15.25s-2,16.5,2.5,23s12.527,10.857,15.5,11.5
    c6.167,1.333,16.183,0.077,22-2.25c5-2,15-8.5,16.25-13"/>
</svg>
