<svg width="402" height="145" viewBox="0 0 402 145" fill="none" xmlns="http://www.w3.org/2000/svg">
<path d="M69.7344 15.8125L84.5 55.0469L99.2305 15.8125H110.727V67H101.867V50.125L102.746 27.5547L87.6289 67H81.2656L66.1836 27.5898L67.0625 50.125V67H58.2031V15.8125H69.7344ZM162.125 42.7422C162.125 47.7578 161.258 52.1641 159.523 55.9609C157.789 59.7344 155.305 62.6406 152.07 64.6797C148.859 66.6953 145.156 67.7031 140.961 67.7031C136.813 67.7031 133.109 66.6953 129.852 64.6797C126.617 62.6406 124.109 59.7461 122.328 55.9961C120.57 52.2461 119.68 47.9219 119.656 43.0234V40.1406C119.656 35.1484 120.535 30.7422 122.293 26.9219C124.074 23.1016 126.57 20.1836 129.781 18.168C133.016 16.1289 136.719 15.1094 140.891 15.1094C145.063 15.1094 148.754 16.1172 151.965 18.1328C155.199 20.125 157.695 23.0078 159.453 26.7812C161.211 30.5313 162.102 34.9023 162.125 39.8945V42.7422ZM153.23 40.0703C153.23 34.3984 152.152 30.0508 149.996 27.0273C147.863 24.0039 144.828 22.4922 140.891 22.4922C137.047 22.4922 134.035 24.0039 131.856 27.0273C129.699 30.0273 128.598 34.2812 128.551 39.7891V42.7422C128.551 48.3672 129.641 52.7148 131.82 55.7852C134.023 58.8555 137.07 60.3906 140.961 60.3906C144.898 60.3906 147.922 58.8906 150.031 55.8906C152.164 52.8906 153.23 48.5078 153.23 42.7422V40.0703Z" fill="white"/>
<path d="M193.879 53.3945C193.879 51.5898 193.234 50.1836 191.945 49.1758C190.68 48.168 188.441 47.125 185.23 46.0469C182.02 44.9688 179.395 43.9258 177.355 42.918C170.723 39.6602 167.406 35.1836 167.406 29.4883C167.406 26.6523 168.227 24.1562 169.867 22C171.531 19.8203 173.875 18.1328 176.898 16.9375C179.922 15.7187 183.32 15.1094 187.094 15.1094C190.773 15.1094 194.066 15.7656 196.973 17.0781C199.902 18.3906 202.176 20.2656 203.793 22.7031C205.41 25.1172 206.219 27.8828 206.219 31H193.914C193.914 28.9141 193.27 27.2969 191.98 26.1484C190.715 25 188.992 24.4258 186.812 24.4258C184.609 24.4258 182.863 24.918 181.574 25.9023C180.309 26.8633 179.676 28.0937 179.676 29.5938C179.676 30.9062 180.379 32.1016 181.785 33.1797C183.191 34.2344 185.664 35.3359 189.203 36.4844C192.742 37.6094 195.648 38.8281 197.922 40.1406C203.453 43.3281 206.219 47.7227 206.219 53.3242C206.219 57.8008 204.531 61.3164 201.156 63.8711C197.781 66.4258 193.152 67.7031 187.27 67.7031C183.121 67.7031 179.359 66.9648 175.984 65.4883C172.633 63.9883 170.102 61.9492 168.391 59.3711C166.703 56.7695 165.859 53.7812 165.859 50.4062H178.234C178.234 53.1484 178.938 55.1758 180.344 56.4883C181.773 57.7773 184.082 58.4219 187.27 58.4219C189.309 58.4219 190.914 57.9883 192.086 57.1211C193.281 56.2305 193.879 54.9883 193.879 53.3945ZM255.332 67H243.062V45.625H224.887V67H212.547V15.8125H224.887V36.1328H243.062V15.8125H255.332V67ZM306.52 42.4609C306.52 47.4531 305.594 51.8711 303.742 55.7148C301.891 59.5586 299.254 62.5234 295.832 64.6094C292.434 66.6719 288.555 67.7031 284.195 67.7031C279.836 67.7031 275.969 66.707 272.594 64.7148C269.219 62.6992 266.582 59.8281 264.684 56.1016C262.809 52.375 261.824 48.0977 261.73 43.2695V40.3867C261.73 35.3711 262.645 30.9531 264.473 27.1328C266.324 23.2891 268.961 20.3242 272.383 18.2383C275.828 16.1523 279.742 15.1094 284.125 15.1094C288.461 15.1094 292.328 16.1406 295.727 18.2031C299.125 20.2656 301.762 23.207 303.637 27.0273C305.535 30.8242 306.496 35.1836 306.52 40.1055V42.4609ZM293.969 40.3164C293.969 35.2305 293.113 31.375 291.402 28.75C289.715 26.1016 287.289 24.7773 284.125 24.7773C277.938 24.7773 274.668 29.418 274.316 38.6992L274.281 42.4609C274.281 47.4766 275.113 51.332 276.777 54.0273C278.441 56.7227 280.914 58.0703 284.195 58.0703C287.312 58.0703 289.715 56.7461 291.402 54.0977C293.09 51.4492 293.945 47.6406 293.969 42.6719V40.3164ZM350.043 25.3398H334.68V67H322.34V25.3398H307.258V15.8125H350.043V25.3398Z" fill="#CD5C5C"/>
<path d="M146.285 115.235C146.23 116.422 145.91 117.473 145.324 118.387C144.738 119.293 143.914 119.996 142.851 120.496C141.796 120.996 140.589 121.246 139.23 121.246C136.988 121.246 135.222 120.516 133.933 119.055C132.644 117.594 132 115.532 132 112.867V112.024C132 110.352 132.289 108.891 132.867 107.641C133.453 106.383 134.293 105.414 135.386 104.735C136.48 104.047 137.746 103.703 139.183 103.703C141.253 103.703 142.918 104.25 144.175 105.344C145.433 106.43 146.148 107.93 146.32 109.844H142.218C142.187 108.805 141.925 108.059 141.433 107.606C140.941 107.153 140.191 106.926 139.183 106.926C138.16 106.926 137.41 107.309 136.933 108.074C136.457 108.84 136.207 110.063 136.183 111.742V112.95C136.183 114.77 136.41 116.071 136.863 116.852C137.324 117.633 138.113 118.024 139.23 118.024C140.175 118.024 140.898 117.801 141.398 117.356C141.898 116.91 142.164 116.203 142.195 115.235H146.285ZM152.214 121.012H148.253V103.012H152.214V121.012ZM158.824 121.012H154.863V108.332H158.824V121.012ZM154.629 105.063C154.629 104.5 154.832 104.039 155.238 103.68C155.644 103.321 156.171 103.141 156.82 103.141C157.468 103.141 157.996 103.321 158.402 103.68C158.808 104.039 159.011 104.5 159.011 105.063C159.011 105.625 158.808 106.086 158.402 106.446C157.996 106.805 157.468 106.985 156.82 106.985C156.171 106.985 155.644 106.805 155.238 106.446C154.832 106.086 154.629 105.625 154.629 105.063ZM166.629 118.2C167.183 118.2 167.613 118.051 167.918 117.754C168.222 117.45 168.371 117.028 168.363 116.489H172.066C172.066 117.879 171.566 119.02 170.566 119.91C169.574 120.801 168.293 121.246 166.722 121.246C164.879 121.246 163.425 120.668 162.363 119.512C161.3 118.356 160.769 116.754 160.769 114.707V114.543C160.769 113.262 161.003 112.133 161.472 111.157C161.949 110.172 162.632 109.418 163.523 108.895C164.414 108.364 165.468 108.098 166.687 108.098C168.336 108.098 169.644 108.555 170.613 109.469C171.582 110.383 172.066 111.621 172.066 113.184H168.363C168.363 112.528 168.203 112.024 167.882 111.672C167.562 111.321 167.132 111.145 166.593 111.145C165.57 111.145 164.972 111.797 164.8 113.102C164.746 113.516 164.718 114.086 164.718 114.813C164.718 116.086 164.871 116.969 165.175 117.461C165.48 117.953 165.964 118.2 166.629 118.2ZM178.828 116.289L177.714 117.403V121.012H173.765V103H177.714V112.563L178.113 112.035L181.089 108.332H185.824L181.382 113.547L186.117 121.012H181.593L178.828 116.289ZM197.437 105.18V108.332H199.523V111.074H197.437V116.875C197.437 117.352 197.523 117.684 197.695 117.871C197.867 118.059 198.207 118.153 198.714 118.153C199.105 118.153 199.433 118.129 199.699 118.082V120.907C198.988 121.133 198.246 121.246 197.472 121.246C196.113 121.246 195.109 120.926 194.461 120.285C193.812 119.645 193.488 118.672 193.488 117.367V111.074H191.871V108.332H193.488V105.18H197.437ZM200.238 114.555C200.238 113.289 200.484 112.164 200.976 111.18C201.468 110.188 202.175 109.426 203.097 108.895C204.019 108.364 205.101 108.098 206.343 108.098C208.242 108.098 209.738 108.688 210.832 109.867C211.925 111.039 212.472 112.637 212.472 114.66V114.801C212.472 116.778 211.921 118.348 210.82 119.512C209.726 120.668 208.242 121.246 206.367 121.246C204.562 121.246 203.113 120.707 202.019 119.629C200.925 118.543 200.336 117.074 200.25 115.223L200.238 114.555ZM204.187 114.801C204.187 115.973 204.371 116.832 204.738 117.379C205.105 117.926 205.648 118.2 206.367 118.2C207.773 118.2 208.492 117.117 208.523 114.953V114.555C208.523 112.282 207.796 111.145 206.343 111.145C205.023 111.145 204.308 112.125 204.199 114.086L204.187 114.801ZM226.828 117.45C226.828 117.114 226.652 116.844 226.3 116.641C225.949 116.438 225.281 116.227 224.296 116.008C223.312 115.789 222.5 115.504 221.859 115.153C221.218 114.793 220.73 114.36 220.394 113.852C220.058 113.344 219.89 112.762 219.89 112.106C219.89 110.942 220.371 109.985 221.332 109.235C222.293 108.477 223.55 108.098 225.105 108.098C226.777 108.098 228.121 108.477 229.136 109.235C230.152 109.992 230.66 110.989 230.66 112.223H226.699C226.699 111.207 226.164 110.7 225.093 110.7C224.679 110.7 224.332 110.817 224.05 111.051C223.769 111.278 223.629 111.563 223.629 111.907C223.629 112.258 223.8 112.543 224.144 112.762C224.488 112.981 225.035 113.16 225.785 113.301C226.543 113.442 227.207 113.61 227.777 113.805C229.683 114.461 230.636 115.637 230.636 117.332C230.636 118.489 230.121 119.43 229.089 120.157C228.066 120.883 226.738 121.246 225.105 121.246C224.019 121.246 223.05 121.051 222.199 120.66C221.347 120.27 220.683 119.739 220.207 119.067C219.73 118.395 219.492 117.688 219.492 116.946H223.183C223.199 117.532 223.394 117.961 223.769 118.235C224.144 118.5 224.625 118.633 225.211 118.633C225.75 118.633 226.152 118.524 226.418 118.305C226.691 118.086 226.828 117.801 226.828 117.45ZM237.093 105.18V108.332H239.179V111.074H237.093V116.875C237.093 117.352 237.179 117.684 237.351 117.871C237.523 118.059 237.863 118.153 238.371 118.153C238.761 118.153 239.089 118.129 239.355 118.082V120.907C238.644 121.133 237.902 121.246 237.129 121.246C235.769 121.246 234.765 120.926 234.117 120.285C233.468 119.645 233.144 118.672 233.144 117.367V111.074H231.527V108.332H233.144V105.18H237.093ZM247.886 121.012C247.746 120.754 247.621 120.375 247.511 119.875C246.785 120.789 245.769 121.246 244.464 121.246C243.269 121.246 242.253 120.887 241.418 120.168C240.582 119.442 240.164 118.532 240.164 117.438C240.164 116.063 240.671 115.024 241.687 114.321C242.703 113.617 244.179 113.266 246.117 113.266H247.336V112.598C247.336 111.434 246.832 110.852 245.824 110.852C244.886 110.852 244.418 111.313 244.418 112.235H240.468C240.468 111.008 240.988 110.012 242.027 109.246C243.074 108.481 244.406 108.098 246.023 108.098C247.64 108.098 248.918 108.492 249.855 109.282C250.793 110.071 251.273 111.153 251.296 112.528V118.141C251.312 119.305 251.492 120.196 251.836 120.813V121.012H247.886ZM245.414 118.434C245.906 118.434 246.312 118.328 246.632 118.117C246.961 117.907 247.195 117.668 247.336 117.403V115.375H246.187C244.812 115.375 244.125 115.992 244.125 117.227C244.125 117.586 244.246 117.879 244.488 118.106C244.73 118.324 245.039 118.434 245.414 118.434ZM261.164 111.907L259.863 111.813C258.621 111.813 257.824 112.203 257.472 112.985V121.012H253.523V108.332H257.226L257.355 109.961C258.019 108.719 258.945 108.098 260.132 108.098C260.554 108.098 260.921 108.145 261.234 108.239L261.164 111.907ZM267.773 105.18V108.332H269.859V111.074H267.773V116.875C267.773 117.352 267.859 117.684 268.031 117.871C268.203 118.059 268.543 118.153 269.05 118.153C269.441 118.153 269.769 118.129 270.035 118.082V120.907C269.324 121.133 268.582 121.246 267.808 121.246C266.449 121.246 265.445 120.926 264.796 120.285C264.148 119.645 263.824 118.672 263.824 117.367V111.074H262.207V108.332H263.824V105.18H267.773Z" fill="white" fill-opacity="0.8"/>
</svg>
